<svg width="12" height="12" viewBox="0 0 12 12" fill="none" xmlns="http://www.w3.org/2000/svg">
<path d="M9.5 3H8V2.5C8 2.23478 7.89464 1.98043 7.70711 1.79289C7.51957 1.60536 7.26522 1.5 7 1.5H5C4.73478 1.5 4.48043 1.60536 4.29289 1.79289C4.10536 1.98043 4 2.23478 4 2.5V3H2.5C2.10218 3 1.72064 3.15804 1.43934 3.43934C1.15804 3.72064 1 4.10218 1 4.5V9C1 9.39782 1.15804 9.77936 1.43934 10.0607C1.72064 10.342 2.10218 10.5 2.5 10.5H9.5C9.89782 10.5 10.2794 10.342 10.5607 10.0607C10.842 9.77936 11 9.39782 11 9V4.5C11 4.10218 10.842 3.72064 10.5607 3.43934C10.2794 3.15804 9.89782 3 9.5 3ZM5 2.5H7V3H5V2.5ZM10 9C10 9.13261 9.94732 9.25979 9.85355 9.35355C9.75979 9.44732 9.63261 9.5 9.5 9.5H2.5C2.36739 9.5 2.24021 9.44732 2.14645 9.35355C2.05268 9.25979 2 9.13261 2 9V6.195L4.34 7C4.39309 7.0072 4.44691 7.0072 4.5 7H7.5C7.55422 6.999 7.60806 6.99059 7.66 6.975L10 6.195V9ZM10 5.14L7.42 6H4.58L2 5.14V4.5C2 4.36739 2.05268 4.24021 2.14645 4.14645C2.24021 4.05268 2.36739 4 2.5 4H9.5C9.63261 4 9.75979 4.05268 9.85355 4.14645C9.94732 4.24021 10 4.36739 10 4.5V5.14Z" fill="#595959"/>
</svg>
